<svg xmlns="http://www.w3.org/2000/svg" width="256" height="273" viewBox="0 0 256 273" fill="none">
<path d="M 255.71,0.41 H 0 V 272.41 H 255.71 V 0.41 Z" fill="#F7F6EA"/>
<path d="M 217.17,9.09 H 39.8 Z" fill="#F7F6EA"/>
<path d="M 217.17,9.09 H 39.81 C 22.01,9.09 7.52,23.97 7.52,42.28 V 236.22 C 7.52,251.19 19.94,264.67 36.01,264.67 H 218.31 C 234.46,264.67 249.08,252.25 248.89,235.21 V 40.81 C 248.89,23.34 234.91,9.09 217.17,9.09 Z" fill="#8C6841"/>
<path d="M 15.51,41.9 C 15.51,30.14 23.99,17.81 35.88,16.43 V 211.05 C 28.18,211.36 21.29,214.74 15.51,220.01 V 41.9 Z" fill="#E9D9B3"/>
<path d="M 239.99,236.71 C 239.99,247.85 230.44,255.66 219.88,255.66 H 36.22 C 25.41,255.66 16.51,247.66 16.51,238.26 C 16.51,227.88 25.19,218.92 36.22,218.92 H 217.17 C 225.1,218.92 229.68,217.14 230.71,216.07 L 225.22,228.01 C 223.91,229.01 221.68,229.68 219.75,229.68 H 45.16 C 42.61,229.68 41.81,231.11 41.81,232.43 C 41.81,233.99 43.06,234.96 45.16,234.96 H 219.62 C 221.49,234.96 223.72,234.71 224.91,234.12 L 223.53,239.75 C 222.81,241.91 221.24,242.88 218.56,242.88 H 45.16 C 42.87,242.88 41.81,244.07 41.81,245.71 C 41.81,247.21 42.81,248.11 44.84,248.11 H 218.62 C 224.91,248.11 228.79,245.26 229.79,239.06 L 239.99,212.01 V 236.71 Z" fill="#F9F9EB"/>
<path d="M 239.99,236.71 C 239.99,247.85 230.44,255.66 219.88,255.66 H 36.22 C 27.74,255.66 20.45,249.84 17.95,242.81 C 19.95,244.81 26.05,248.11 33.76,248.11 H 218.62 C 224.91,248.11 228.79,245.26 229.79,239.06 L 237.92,216.73 L 239.99,212.01 V 236.71 Z" fill="#DCC29B"/>
<path d="M 24.73,230.86 C 24.73,225.11 28.05,220.26 33.7,218.92 H 36.22 C 28.74,218.92 24.73,224.31 24.73,230.86 C 24.73,238.26 30.95,243.94 38.66,243.94 H 35.76 C 29.47,243.94 24.73,237.34 24.73,230.86 Z" fill="#F9F9EB"/>
<path d="M 216.92,16.31 H 42.81 V 210.76 H 216.73 C 229.04,210.76 239.99,200.71 239.99,189.66 V 40.81 C 239.99,27.65 229.72,16.31 216.92,16.31 Z" fill="#FEFDF5"/>
<path d="M 216.92,82.69 L 200.12,76.73 L 202.24,69.14 C 203.49,64.76 200.93,61.54 197.12,60.54 L 115.02,39.75 C 109.79,38.37 107.17,39.24 106.11,44.09 L 100.62,63.76 H 91.32 C 86.97,63.76 85.72,67.26 85.72,70.2 L 60.08,78.54 C 55.45,79.73 55.33,84.23 56.71,88.39 L 87.35,182.95 C 88.73,187.34 92.82,187.72 96.11,186.34 L 134.12,174.4 L 180.21,189.15 C 185.63,190.9 188.25,188.34 189.25,184.78 L 221.11,91.23 C 222.46,87.13 220.74,83.91 216.92,82.69 Z" fill="#8C6841"/>
<path d="M 113.83,45.78 L 195.18,66.01 C 196.74,66.45 197.24,67.32 196.74,69.01 L 194.62,75.91 L 184.19,72.48 C 183.75,67.95 181.85,63.76 176.72,63.76 H 106.86 L 112.35,47.03 C 112.72,45.84 112.72,45.46 113.83,45.78 Z" fill="#F9F9EB"/>
<path d="M 62.95,84.91 L 85.29,80.05 V 153.72 L 62.64,86.29 C 62.26,85.23 62.39,85.1 62.95,84.91 Z" fill="#FEFDF5"/>
<path d="M 184.19,78.73 L 213.64,88.26 C 214.77,88.64 214.64,88.77 214.33,89.71 L 184.19,182.4 C 183.69,183.78 183.32,183.65 182.13,183.34 L 154.06,173.9 C 153.44,173.65 153.5,172.77 154.44,172.77 H 177.16 C 183.19,172.77 184.19,169.34 184.19,166.02 V 78.73 Z" fill="#FEFDF5"/>
<path d="M 91.51,69.76 H 177.72 C 178.34,69.76 178.16,70.26 178.16,71.01 V 166.65 C 178.16,167.65 178.34,168.15 177.34,168.15 H 91.82 C 91.13,168.15 91.26,167.71 91.26,166.9 V 70.76 C 91.26,70.01 91.13,69.76 91.51,69.76 Z" fill="#FEFDF5"/>
<path d="M 117.64,54.29 L 151.68,63.76 H 115.08 L 117.64,54.29 Z" fill="#D3A072"/>
<path d="M 85.29,84.17 V 128.86 L 72.15,90.14 L 85.29,84.17 Z" fill="#D3A072"/>
<path d="M 184.19,86.64 L 204.36,93.61 L 184.19,152.72 V 86.64 Z" fill="#D3A072"/>
<path d="M 98.42,76.92 H 170.27 V 142.93 H 98.42 V 76.92 Z" fill="#D3A072"/>
<path d="M 91.26,173.71 H 114.71 L 114.46,174.71 L 94.11,181.14 C 93.11,181.46 92.76,181.27 92.45,180.27 L 91.26,173.71 Z" fill="#F9F9EB"/>
</svg>